<svg xmlns="http://www.w3.org/2000/svg" viewBox="0 0 64 64" id="group"><g data-name="Layer 64"><path fill="#ffb74d" stroke="#ffb74d" stroke-linecap="round" stroke-linejoin="round" stroke-width="2" d="M2.52,23.48C2.52,14,10.18,7,19.63,7s17.11,7,17.11,16.48S29.09,41.23,19.63,41.23,2.52,32.93,2.52,23.48Z"></path><ellipse cx="19.5" cy="30" fill="#4f4f4f" rx="4.5" ry="6"></ellipse><circle cx="27.63" cy="18.11" r="2" fill="#4f4f4f"></circle><circle cx="11.63" cy="18.11" r="2" fill="#4f4f4f"></circle><path fill="#f57e17" stroke="#f57e17" stroke-linecap="round" stroke-linejoin="round" stroke-width="2" d="M27.89,23.37c0-9.45,7.66-16.48,17.11-16.48s17.11,7,17.11,16.48S54.45,41.11,45,41.11,27.89,32.82,27.89,23.37Z"></path><path fill="none" stroke="#4f4f4f" stroke-linecap="round" stroke-linejoin="round" stroke-width="2" d="M51.29,31a7,7,0,0,0-12.66-.15"></path><circle cx="53" cy="18" r="2" fill="#4f4f4f"></circle><circle cx="37" cy="18" r="2" fill="#4f4f4f"></circle><path fill="#fff35f" stroke="#fff35f" stroke-linecap="round" stroke-linejoin="round" stroke-width="2" d="M14.89,41.37c0-9.45,7.66-16.48,17.11-16.48s17.11,7,17.11,16.48S41.45,59.11,32,59.11,14.89,50.82,14.89,41.37Z"></path><path fill="none" stroke="#4f4f4f" stroke-linecap="round" stroke-linejoin="round" stroke-width="2" d="M25.64,47.92a7,7,0,0,0,12.66.15"></path><circle cx="40" cy="36" r="2" fill="#4f4f4f"></circle><circle cx="24" cy="36" r="2" fill="#4f4f4f"></circle></g></svg>