<svg xmlns="http://www.w3.org/2000/svg" fill="none" viewBox="0 0 24 24" id="edit"><path fill="#4285f4" fill-rule="evenodd" d="M13.973 3.85A3.75 3.75 0 0 0 8.85 5.223L2.984 15.386a1.732 1.732 0 0 0-.16 1.36l1.056 3.556a.75.75 0 0 0 .894.516l3.608-.863c.462-.11.86-.407 1.097-.819l5.868-10.163a3.75 3.75 0 0 0-1.373-5.123Z" clip-rule="evenodd" class="colora2dbf9 svgShape"></path><path fill="#34a853" fill-rule="evenodd" d="M16.348 9.294a.75.75 0 0 1 .75-.75h4a.75.75 0 1 1 0 1.5h-4a.75.75 0 0 1-.75-.75zm-3 5a.75.75 0 0 1 .75-.75h7a.75.75 0 1 1 0 1.5h-7a.75.75 0 0 1-.75-.75zm-3 5a.75.75 0 0 1 .75-.75h10a.75.75 0 1 1 0 1.5h-10a.75.75 0 0 1-.75-.75z" clip-rule="evenodd" class="color575f69 svgShape"></path></svg>