<svg id="SvgjsSvg1231" width="288" height="288" xmlns="http://www.w3.org/2000/svg" version="1.1" xmlns:xlink="http://www.w3.org/1999/xlink" xmlns:svgjs="http://svgjs.com/svgjs"><defs id="SvgjsDefs1232"></defs><g id="SvgjsG1233"><svg xmlns="http://www.w3.org/2000/svg" data-name="Layer 1" viewBox="0 0 512 512" width="288" height="288"><path fill="#fe4141" d="M471.96,163.95c18.13,93.42-39.57,218.17-210.47,287.41a14.3,14.3,0,0,1-11,0C80.14,383.77,21.89,258.47,40.02,163.95,52.11,100.21,96.62,59.54,154.33,59.54c32.42,0,67.04,13.19,101.66,39.02,34.07-24.73,69.24-37.92,101.12-37.92C414.81,60.64,459.32,101.31,471.96,163.95Z" class="colord7443e svgShape"></path><polygon fill="#fe4141" points="239.07 258.98 220.64 282.65 166.2 240.25 123.81 294.69 100.14 276.26 142.54 221.82 87.31 178.81 105.74 155.14 160.97 198.15 203.98 142.93 227.65 161.36 184.64 216.58 239.07 258.98" class="colorfedb41 svgShape"></polygon></svg></g></svg>