<svg id="SvgjsSvg1059" width="288" height="288" xmlns="http://www.w3.org/2000/svg" version="1.1" xmlns:xlink="http://www.w3.org/1999/xlink" xmlns:svgjs="http://svgjs.com/svgjs"><defs id="SvgjsDefs1060"></defs><g id="SvgjsG1061"><svg xmlns="http://www.w3.org/2000/svg" viewBox="0 0 24 24" width="288" height="288"><path fill="#f3d317" d="m19.284 3.925-4.15-1.667A4.626 4.626 0 0 0 12 1c-1.933 0-4 .133-4.875.629s-.759.886-.239.629a4.34 4.34 0 0 1 2.765-.315L4.716 3.925A5.921 5.921 0 0 0 1 9.385v5.959A7.656 7.656 0 0 0 8.656 23h6.688A7.656 7.656 0 0 0 23 15.344V9.421a5.922 5.922 0 0 0-3.716-5.496Z" class="colorf8de40 svgShape"></path><path fill="#c1a41a" d="M23 13.938a14.688 14.688 0 0 1-12.406 6.531c-5.542 0-6.563-1-9.142-2.529A7.66 7.66 0 0 0 8.656 23h6.688A7.656 7.656 0 0 0 23 15.344Z" class="colore7c930 svgShape"></path><path fill="#ff8500" d="M12 9.656a5.154 5.154 0 0 0-3.062 2.916h6.124A5.154 5.154 0 0 0 12 9.656Z" class="colorf6921e svgShape"></path><path fill="#ff8500" d="M12 15.488a5.15 5.15 0 0 1-3.062-2.916h6.124A5.15 5.15 0 0 1 12 15.488Z" class="colorf6921e svgShape"></path><path fill="#864e20" d="M9.3 7.173a3.027 3.027 0 0 0-.447.006 4.392 4.392 0 0 0-.873.163c-.142.043-.285.086-.425.138s-.271.123-.407.185a3.642 3.642 0 0 0-.391.218c-.125.084-.256.158-.373.251a4.837 4.837 0 0 0-1.217 1.31 3.714 3.714 0 0 0-.512 1.245.173.173 0 0 0 .286.157c.324-.283.626-.545.933-.8.406-.336.8-.66 1.218-.962.1-.083.209-.149.312-.226l.155-.116c.051-.04.108-.07.16-.108.1-.074.212-.144.315-.224l.003-.01c.108-.069.217-.14.325-.215.215-.162.449-.291.675-.46.115-.081.234-.159.353-.242a.173.173 0 0 0-.09-.31zm5.444 0h.005a3.029 3.029 0 0 1 .447.006 4.405 4.405 0 0 1 .873.163c.142.043.285.086.424.138s.272.123.408.185a3.642 3.642 0 0 1 .391.218c.124.084.255.158.373.251a4.837 4.837 0 0 1 1.217 1.31 3.735 3.735 0 0 1 .512 1.245.173.173 0 0 1-.286.157 49.394 49.394 0 0 0-.933-.8c-.406-.336-.8-.66-1.218-.962-.1-.083-.209-.149-.312-.226l-.155-.116c-.051-.04-.108-.07-.161-.108-.1-.074-.211-.144-.314-.224l-.009-.01a9.111 9.111 0 0 1-.325-.215c-.215-.162-.449-.291-.675-.46-.115-.081-.234-.159-.353-.242a.173.173 0 0 1 .091-.31z" class="color864e20 svgShape"></path></svg></g></svg>