<svg xmlns="http://www.w3.org/2000/svg" enable-background="new 0 0 512 512" viewBox="0 0 512 512" id="comment"><path fill="#fdb900" d="M458.485,55.084H130.787c-29.003,0-52.515,23.512-52.515,52.515v9.304l370.909,216.364h9.304
				c29.003,0,52.515-23.512,52.515-52.515V107.598C511,78.595,487.488,55.084,458.485,55.084z"></path><path fill="#fde44d" d="M449.182,342.569c0,29.003-23.512,52.515-52.515,52.515H120.773L16.455,441.447
				c0-18.993,0-260.274,0-272.031c0-29.003,23.512-52.515,52.515-52.515c15.94,0,312.928,0,327.698,0
				c29.003,0,52.515,23.512,52.515,52.515C449.182,188.217,449.182,316.062,449.182,342.569z"></path><path fill="#fd8800" d="M1,441.447V169.418c0-37.479,30.492-67.971,67.971-67.971h327.695
				c37.479,0,67.971,30.492,67.971,67.971v173.149c0,37.479-30.492,67.971-67.971,67.971H124.053L22.731,455.57
				C12.52,460.107,1,452.62,1,441.447z M68.971,132.357c-20.436,0-37.062,16.626-37.062,37.062v248.249l82.587-36.706
				c5.672-2.521-8.94-0.861,282.169-1.332c20.436,0,37.062-16.626,37.062-37.062V169.418c0-20.436-16.626-37.062-37.062-37.062
				H68.971z"></path><path fill="#fdb900" d="M371.909 225.084H93.727c-8.535 0-15.455-6.919-15.455-15.455 0-8.535 6.919-15.455 15.455-15.455h278.182c8.535 0 15.455 6.919 15.455 15.455C387.364 218.165 380.444 225.084 371.909 225.084zM371.909 317.811H93.727c-8.535 0-15.455-6.919-15.455-15.455s6.919-15.455 15.455-15.455h278.182c8.535 0 15.455 6.919 15.455 15.455S380.444 317.811 371.909 317.811z"></path></svg>