<svg id="SvgjsSvg1042" width="288" height="288" xmlns="http://www.w3.org/2000/svg" version="1.1" xmlns:xlink="http://www.w3.org/1999/xlink" xmlns:svgjs="http://svgjs.com/svgjs"><defs id="SvgjsDefs1043"></defs><g id="SvgjsG1044"><svg xmlns="http://www.w3.org/2000/svg" viewBox="0 0 32 32" width="288" height="288"><g data-name="Share" fill="#2d6cdf" class="color000 svgShape"><path fill="#00c6ff" d="M2.62 12.61c0-.1.06-.2.1-.3a8.2 8.2 0 0 1 6.94-5H19.28v-3.2a1 1 0 0 1 1.65-.76l8 6.93A3.08 3.08 0 0 1 30 12.61a3.08 3.08 0 0 1-1.07 2.33l-8 6.93a1 1 0 0 1-1.65-.76V18h-6.64a1.18 1.18 0 0 0-1.18 1.18v8.73a1 1 0 0 1-.67.94 1 1 0 0 1-.33.06 1 1 0 0 1-.78-.38L3.9 21.3a8.76 8.76 0 0 1-1.28-8.69Z" class="colorf7e0a3 svgShape"></path><path fill="#482ff7" d="M30 12.61a3.08 3.08 0 0 1-1.07 2.33l-8 6.93a1 1 0 0 1-1.65-.76V18h-6.64a1.18 1.18 0 0 0-1.18 1.18v8.73a1 1 0 0 1-.67.94 1 1 0 0 1-.33.06 1 1 0 0 1-.78-.38L3.9 21.3a8.76 8.76 0 0 1-1.28-8.68Z" class="colorf09c67 svgShape"></path></g></svg></g></svg>