<svg xmlns="http://www.w3.org/2000/svg" data-name="Layer 362" viewBox="0 0 48.57 47.07" id="AddUser"><path fill="#fbbc05" d="M29.52 34.73a12.34 12.34 0 0 1-12.34 12.34h-4.84a12.33 12.33 0 0 1-8.73-3.61 12.34 12.34 0 0 1 8.73-21.07h4.84a12.34 12.34 0 0 1 12.34 12.35Z" class="colorffb703 svgShape"></path><circle cx="14.76" cy="7.9" r="7.9" fill="#ea4335" class="colorfb8500 svgShape"></circle><path fill="#4285f4" d="M47.06 17.29h-18a1.5 1.5 0 1 1 0-3h18a1.5 1.5 0 0 1 0 3Z" class="color4361ee svgShape"></path><path fill="#4285f4" d="M38.07 26.29a1.5 1.5 0 0 1-1.5-1.5v-18a1.5 1.5 0 0 1 3 0v18a1.5 1.5 0 0 1-1.5 1.5Z" class="color4361ee svgShape"></path></svg>