<svg xmlns="http://www.w3.org/2000/svg" fill="none" viewBox="0 0 64 64" id="Share"><g clip-path="url(#a)" fill="#26d7fe" class="color000000 svgShape"><path fill="#9ae45f" d="M50.036 9.526 8.916 23.682c-3.298 1.135-3.665 5.651-.595 7.304l15.414 8.3a4 4 0 0 1 1.625 1.626l8.3 15.413c1.653 3.07 6.169 2.703 7.304-.594l14.156-41.12c1.085-3.152-1.933-6.17-5.084-5.085Z" class="colord0d2e0 svgShape"></path><path fill="#9ae45f" fill-rule="evenodd" d="M53.86 14.176c.723-2.1-1.29-4.113-3.39-3.39L9.35 24.943c-2.199.756-2.444 3.767-.397 4.869l15.414 8.3a5.333 5.333 0 0 1 2.167 2.167l8.3 15.414c1.102 2.047 4.113 1.802 4.87-.396L53.86 14.176Zm-4.258-5.911c4.201-1.447 8.225 2.577 6.78 6.779l-14.157 41.12c-1.514 4.396-7.535 4.886-9.739.793l-8.3-15.414a2.667 2.667 0 0 0-1.084-1.083L7.69 32.16c-4.094-2.204-3.604-8.225.792-9.739L49.602 8.265Z" clip-rule="evenodd" class="colord0d2e0 svgShape"></path><path fill="#d85b53" fill-rule="evenodd" d="M39.876 24.77c.52.52.52 1.365 0 1.886l-7.542 7.542a1.333 1.333 0 1 1-1.886-1.886l7.542-7.542c.521-.52 1.365-.52 1.886 0Z" clip-rule="evenodd" class="color2b3151 svgShape"></path></g><defs><clipPath id="a"><path fill="#d45985" d="M0 0h64v64H0z" class="colorffffff svgShape"></path></clipPath></defs></svg>