<svg id="SvgjsSvg1012" width="288" height="288" xmlns="http://www.w3.org/2000/svg" version="1.1" xmlns:xlink="http://www.w3.org/1999/xlink" xmlns:svgjs="http://svgjs.com/svgjs"><defs id="SvgjsDefs1013"></defs><g id="SvgjsG1014"><svg xmlns="http://www.w3.org/2000/svg" fill="none" viewBox="0 0 32 32" width="288" height="288"><path fill="#e83e3e" d="M18.904 2c-.268 0-.524.106-.713.295L3.18 17.305a4.035 4.035 0 0 0 0 5.706l5.809 5.807a4.035 4.035 0 0 0 5.706 0L29.704 13.81c.19-.189.296-.445.296-.713V3.01C30 2.452 29.548 2 28.991 2Z" class="colorff6160 svgShape"></path><path fill="#eeff90" fill-rule="evenodd" d="M25 8a1 1 0 1 0 0-2 1 1 0 0 0 0 2zm-6 16.52L7.48 13 6 14.48 17.52 26Z" clip-rule="evenodd" class="colorffbd4a svgShape"></path></svg></g></svg>